<svg width="329px" height="33px" viewBox="0 0 329 33" version="1.1" xmlns="http://www.w3.org/2000/svg" xmlns:xlink="http://www.w3.org/1999/xlink">
    <!-- Generator: Sketch 52.2 (67145) - http://www.bohemiancoding.com/sketch -->
    <title>fill-color</title>
    <g id="Styles" stroke="none" stroke-width="1" fill="none" fill-rule="evenodd">
        <g id="Artboard" transform="translate(0.000000, -344.000000)" fill="#fff">
            <g id="waves" transform="translate(164.500000, 360.500000) rotate(90.000000) translate(-164.500000, -360.500000) translate(148.000000, 196.000000)">
                <path d="M27.0813333,3.92990476 C27.0813333,9.54938095 23.081381,10.943619 16.0142857,12.9214286 C8.87933333,14.9191429 9.20871608e-12,17.4063333 9.20871608e-12,28.7457143 C9.20871608e-12,40.0878095 8.87933333,42.5740952 16.0142857,44.5718095 C23.081381,46.549619 27.0813333,47.9429524 27.0813333,53.560619 C27.0813333,59.1800952 23.081381,60.5743333 16.0142857,62.5521429 C8.87933333,64.5498571 9.20871608e-12,67.0370476 9.20871608e-12,78.3764286 C9.20871608e-12,89.717619 8.87933333,92.2039048 16.0142857,94.201619 C23.081381,96.1803333 27.0813333,97.5727619 27.0813333,103.191333 C27.0813333,108.809905 23.081381,110.204143 16.0142857,112.181952 C8.87933333,114.180571 9.20871608e-12,116.666857 9.20871608e-12,128.006238 C9.20871608e-12,139.348333 8.87933333,141.834619 16.0142857,143.832333 C23.081381,145.811048 27.0813333,147.203476 27.0813333,152.822048 C27.0813333,158.440619 23.081381,159.834857 16.0142857,161.812667 C10.2174762,163.43581 3.268,165.382857 0.866761905,172.13781 C0.312142857,173.69581 9.20871608e-12,175.510762 9.20871608e-12,177.637857 C9.20871608e-12,188.979048 8.87933333,191.465333 16.0142857,193.463952 C23.081381,195.440857 27.0813333,196.833286 27.0813333,202.452762 C27.0813333,208.071333 23.081381,209.465571 16.0142857,211.444286 C8.87933333,213.442 9.20871608e-12,215.928286 9.20871608e-12,227.267667 C9.20871608e-12,238.608857 8.87933333,241.095143 16.0142857,243.093762 C23.081381,245.071571 27.0813333,246.464 27.0813333,252.083476 C27.0813333,257.702048 23.081381,259.096286 16.0142857,261.07319 C8.87933333,263.07181 9.20871608e-12,265.558095 9.20871608e-12,276.898381 C9.20871608e-12,288.238667 8.87933333,290.724952 16.0142857,292.722667 C23.081381,294.702286 27.0813333,296.09381 27.0813333,301.713286 C27.0813333,307.331857 23.081381,308.726095 16.0142857,310.70481 C8.87933333,312.702524 9.20871608e-12,315.189714 9.20871608e-12,326.529095 C9.20871608e-12,327.893476 1.10652381,329 2.47090476,329 C3.83528571,329 4.94180952,327.893476 4.94180952,326.529095 C4.94180952,319.304571 9.65471429,317.618095 17.3460952,315.463857 C23.8848095,313.632619 32.0231429,311.355333 32.0231429,301.713286 C32.0231429,292.072143 23.8848095,289.794857 17.3460952,287.962714 C9.65471429,285.810286 4.94180952,284.122905 4.94180952,276.898381 C4.94180952,269.673857 9.65471429,267.987381 17.3460952,265.834048 C23.8848095,264.00281 32.0231429,261.724619 32.0231429,252.083476 C32.0231429,242.444143 23.886619,240.163238 17.3479048,238.334714 C9.65652381,236.180476 4.94180952,234.494 4.94180952,227.267667 C4.94180952,220.043143 9.65471429,218.357571 17.3460952,216.203333 C23.8848095,214.372095 32.0231429,212.09481 32.0231429,202.452762 C32.0231429,192.813429 23.886619,190.533429 17.3479048,188.703095 C9.65652381,186.549762 4.94180952,184.863286 4.94180952,177.637857 C4.94180952,170.412429 9.65471429,168.726857 17.3460952,166.572619 C23.8848095,164.741381 32.0231429,162.46319 32.0231429,152.822048 C32.0231429,143.180905 23.8848095,140.902714 17.3460952,139.072381 C9.65471429,136.919048 4.94180952,135.231667 4.94180952,128.006238 C4.94180952,120.782619 9.65471429,119.096143 17.3460952,116.94281 C23.8848095,115.110667 32.0231429,112.833381 32.0231429,103.191333 C32.0231429,93.552 23.886619,91.272 17.3479048,89.4425714 C9.65652381,87.2883333 4.94180952,85.6027619 4.94180952,78.3764286 C4.94180952,71.1519048 9.65471429,69.4654286 17.3460952,67.3111905 C23.8848095,65.4808571 32.0231429,63.2026667 32.0231429,53.560619 C32.0231429,43.9212857 23.886619,41.6421905 17.3479048,39.8118571 C9.65652381,37.6585238 4.94180952,35.9720476 4.94180952,28.7457143 C4.94180952,21.5211905 9.65471429,19.835619 17.3460952,17.681381 C23.8848095,15.8492381 32.0231429,13.5719524 32.0231429,3.92990476 C32.0231429,-0.122404825 30.4328613,0.401367188 29.4379883,0.401367188 C28.041986,0.401367188 27.0813333,0.673644967 27.0813333,3.92990476 Z" class="ornament-symbol"></path>
            </g>
        </g>
    </g>
</svg>